<svg width="84" height="67" viewBox="0 0 84 67" fill="none" xmlns="http://www.w3.org/2000/svg">
<path d="M0 18.3378V1.31537H3.14657L12.122 15.217H12.3284L12.1478 1.31537H14.4433V18.3378H11.5804L2.37282 4.12665H2.1407L2.32124 18.3378H0Z" fill="url(#paint0_radial_13_89)"/>
<path d="M20.0251 18.3378V5.00356H22.3722V18.3378H20.0251ZM21.2115 2.68232C20.6613 2.68232 20.2486 2.57056 19.9735 2.34703C19.6984 2.1235 19.5609 1.78821 19.5609 1.34116C19.5609 0.894106 19.6984 0.558816 19.9735 0.33529C20.2486 0.111763 20.6527 0 21.1857 0C21.736 0 22.1486 0.111763 22.4237 0.33529C22.6988 0.558816 22.8364 0.894106 22.8364 1.34116C22.8364 1.77102 22.6988 2.10631 22.4237 2.34703C22.1486 2.57056 21.7446 2.68232 21.2115 2.68232Z" fill="url(#paint1_radial_13_89)"/>
<path d="M33.4625 18.6731C32.2933 18.6731 31.296 18.4839 30.4707 18.1057C29.6626 17.7274 29.0006 17.2202 28.4848 16.584C27.9861 15.9478 27.6164 15.217 27.3757 14.3917C27.1522 13.5664 27.0404 12.7066 27.0404 11.8125C27.0404 10.8325 27.1694 9.91255 27.4273 9.05283C27.6852 8.19312 28.0721 7.43656 28.5879 6.78318C29.1209 6.1126 29.7743 5.59677 30.5481 5.23568C31.339 4.85741 32.2589 4.66827 33.3078 4.66827C34.3222 4.66827 35.2163 4.84881 35.9901 5.20989C36.7638 5.55378 37.3914 6.04382 37.8729 6.68001C38.3715 7.3162 38.6896 8.07276 38.8272 8.94967L36.5833 9.56867C36.5489 9.08722 36.4028 8.62297 36.1448 8.17592C35.9041 7.72887 35.543 7.36779 35.0616 7.09268C34.5802 6.80037 33.9869 6.65422 33.282 6.65422C32.6114 6.65422 32.0354 6.78318 31.5539 7.04109C31.0897 7.29901 30.6942 7.66009 30.3675 8.12434C30.058 8.58859 29.8173 9.13021 29.6454 9.74921C29.4906 10.3682 29.4132 11.0388 29.4132 11.7609C29.4132 12.7582 29.5508 13.6265 29.8259 14.3659C30.1182 15.1053 30.5653 15.6813 31.1671 16.0939C31.7689 16.5066 32.5426 16.7129 33.4883 16.7129C34.1933 16.7129 34.7951 16.5926 35.2937 16.3518C35.7924 16.0939 36.1878 15.7414 36.4801 15.2944C36.7724 14.8301 36.9616 14.2885 37.0475 13.6695L39.214 14.1596C39.0937 14.8989 38.8701 15.5523 38.5435 16.1197C38.2168 16.6871 37.8041 17.16 37.3055 17.5383C36.8068 17.8993 36.2308 18.1744 35.5774 18.3636C34.9412 18.5699 34.2363 18.6731 33.4625 18.6731Z" fill="url(#paint2_radial_13_89)"/>
<path d="M43.1815 18.3378V0.283706H45.5285V10.5745C46.1991 10.2135 46.8439 9.80079 47.4629 9.33654C48.0819 8.87229 48.6579 8.38225 49.1909 7.86642C49.724 7.35059 50.1796 6.84336 50.5579 6.34472C50.9534 5.84608 51.2543 5.39903 51.4606 5.00356H54.2203C53.8936 5.63975 53.4723 6.28454 52.9565 6.93793C52.4579 7.57412 51.899 8.17592 51.28 8.74334C50.6611 9.29356 50.0077 9.7664 49.3199 10.1619C48.6493 10.5573 47.9615 10.841 47.2566 11.013V11.3225C48.1163 11.2537 48.8728 11.3569 49.5262 11.632C50.1796 11.9071 50.7556 12.3026 51.2543 12.8184C51.7701 13.3342 52.2429 13.9274 52.6728 14.598C53.1026 15.2514 53.5153 15.9478 53.9108 16.6871L54.7103 18.3378H52.0538L51.4864 17.1514C51.0221 16.2745 50.5493 15.4835 50.0678 14.7786C49.5864 14.0564 49.0362 13.489 48.4172 13.0763C47.7982 12.6637 47.0588 12.4573 46.1991 12.4573H45.5285V18.3378H43.1815Z" fill="url(#paint3_radial_13_89)"/>
<path d="M0 40.3378V23.3154H2.37282V40.3378H0ZM0.773747 40.3378V38.2745H10.3166V40.3378H0.773747Z" fill="url(#paint4_radial_13_89)"/>
<path d="M19.5794 40.6731C18.5306 40.6731 17.6021 40.5183 16.7939 40.2088C16.003 39.8821 15.3324 39.4179 14.7822 38.8161C14.232 38.2143 13.8193 37.5007 13.5442 36.6754C13.2691 35.8501 13.1315 34.9216 13.1315 33.8899C13.1315 32.841 13.2691 31.8782 13.5442 31.0013C13.8193 30.1243 14.2234 29.3592 14.7564 28.7058C15.2894 28.0524 15.9428 27.5538 16.7166 27.2099C17.4903 26.8488 18.3758 26.6683 19.3731 26.6683C20.25 26.6683 21.0495 26.8144 21.7717 27.1067C22.4939 27.399 23.1043 27.8547 23.6029 28.4737C24.1187 29.0755 24.5056 29.8406 24.7635 30.7691C25.0214 31.6804 25.1246 32.7551 25.073 33.9931L14.6016 34.0704V32.4714L23.6545 32.394L22.8549 33.4772C22.9409 32.394 22.8377 31.4999 22.5454 30.7949C22.2531 30.0899 21.8319 29.5569 21.2817 29.1958C20.7486 28.8348 20.1124 28.6542 19.3731 28.6542C18.5821 28.6542 17.8858 28.8606 17.284 29.2732C16.6822 29.6859 16.2179 30.2791 15.8912 31.0528C15.5817 31.8266 15.427 32.7637 15.427 33.8641C15.427 35.446 15.7795 36.6582 16.4844 37.5007C17.1894 38.3261 18.2383 38.7387 19.631 38.7387C20.164 38.7387 20.6283 38.6785 21.0237 38.5582C21.4364 38.4206 21.7803 38.2401 22.0554 38.0166C22.3477 37.7758 22.5798 37.5007 22.7518 37.1912C22.9409 36.8817 23.0871 36.5464 23.1902 36.1854L25.2536 36.6754C25.0988 37.2944 24.8581 37.8532 24.5314 38.3518C24.2219 38.8333 23.8264 39.2459 23.345 39.5898C22.8807 39.9337 22.3391 40.2002 21.7201 40.3894C21.1011 40.5785 20.3875 40.6731 19.5794 40.6731Z" fill="url(#paint5_radial_13_89)"/>
<path d="M31.8421 40.3378L28.3086 27.0036H30.733L33.3638 38.3518H33.7765L36.5877 27.0036H39.6311L42.4682 38.3518H42.8551L45.4858 27.0036H47.8844L44.2994 40.3378H40.9981L38.2384 29.0153H37.9289L35.1692 40.3378H31.8421Z" fill="url(#paint6_radial_13_89)"/>
<path d="M51.8716 40.3378V27.0036H54.2187V40.3378H51.8716ZM53.0581 24.6823C52.5078 24.6823 52.0952 24.5706 51.8201 24.347C51.5449 24.1235 51.4074 23.7882 51.4074 23.3412C51.4074 22.8941 51.5449 22.5588 51.8201 22.3353C52.0952 22.1118 52.4992 22 53.0323 22C53.5825 22 53.9951 22.1118 54.2703 22.3353C54.5454 22.5588 54.6829 22.8941 54.6829 23.3412C54.6829 23.771 54.5454 24.1063 54.2703 24.347C53.9951 24.5706 53.5911 24.6823 53.0581 24.6823Z" fill="url(#paint7_radial_13_89)"/>
<path d="M64.5353 40.6731C63.6068 40.6731 62.7815 40.5699 62.0593 40.3636C61.3371 40.1744 60.7353 39.8993 60.2539 39.5383C59.7725 39.16 59.4028 38.7129 59.1449 38.1971C58.8869 37.6813 58.7494 37.1138 58.7322 36.4949L60.7181 35.979C60.6838 36.5464 60.8213 37.0451 61.1308 37.4749C61.4575 37.8876 61.9132 38.2057 62.4978 38.4292C63.0996 38.6527 63.8217 38.7645 64.6643 38.7645C65.6787 38.7645 66.4611 38.5926 67.0113 38.2487C67.5787 37.9048 67.8624 37.4319 67.8624 36.8301C67.8624 36.3487 67.7077 35.979 67.3982 35.7211C67.0887 35.446 66.6588 35.2311 66.1086 35.0763C65.5755 34.9044 64.9394 34.7496 64.2 34.6121C63.581 34.4745 62.962 34.3198 62.343 34.1478C61.724 33.9759 61.1566 33.7524 60.6408 33.4772C60.1421 33.1849 59.7381 32.8067 59.4286 32.3424C59.1191 31.8782 58.9643 31.3022 58.9643 30.6144C58.9643 29.8062 59.1792 29.1099 59.6091 28.5253C60.039 27.9407 60.6494 27.485 61.4403 27.1583C62.2312 26.8316 63.1769 26.6683 64.2774 26.6683C65.3778 26.6683 66.3149 26.8402 67.0887 27.1841C67.8624 27.5108 68.4728 27.975 68.9199 28.5768C69.3669 29.1786 69.6162 29.8836 69.6678 30.6918L67.6303 31.2076C67.6131 30.6402 67.4583 30.1587 67.166 29.7633C66.8909 29.3678 66.4955 29.0755 65.9796 28.8863C65.4638 28.68 64.862 28.5768 64.1742 28.5768C63.2629 28.5768 62.5407 28.7488 62.0077 29.0927C61.4747 29.4366 61.2082 29.9094 61.2082 30.5112C61.2082 30.9583 61.3629 31.3193 61.6724 31.5945C61.9991 31.8696 62.4376 32.0845 62.9878 32.2392C63.538 32.394 64.1484 32.5487 64.819 32.7035C65.5068 32.841 66.1602 32.9958 66.7792 33.1677C67.4154 33.3397 67.9828 33.5632 68.4814 33.8383C68.98 34.1134 69.3755 34.4831 69.6678 34.9474C69.9601 35.3944 70.1063 35.9704 70.1063 36.6754C70.1063 37.5523 69.8741 38.2917 69.4099 38.8935C68.9456 39.4781 68.2923 39.9251 67.4497 40.2346C66.6244 40.5269 65.6529 40.6731 64.5353 40.6731Z" fill="url(#paint8_radial_13_89)"/>
<path d="M1.26379 62.3378V60.3003H6.29314C7.46236 60.3003 8.42524 60.0337 9.18179 59.5007C9.93834 58.9505 10.4972 58.1939 10.8582 57.2311C11.2365 56.2682 11.4257 55.1505 11.4257 53.8782C11.4257 52.7605 11.3053 51.789 11.0646 50.9637C10.841 50.1384 10.4886 49.4678 10.0071 48.952C9.52568 48.419 8.91528 48.0235 8.17592 47.7656C7.45376 47.4905 6.59404 47.3529 5.59677 47.3529H1.26379V45.3154H5.54518C7.47095 45.3154 9.04424 45.6507 10.265 46.3212C11.4858 46.9918 12.3885 47.9547 12.9732 49.2099C13.5578 50.4651 13.8501 51.961 13.8501 53.6976C13.8501 54.8496 13.7211 55.8899 13.4632 56.8184C13.2225 57.7469 12.87 58.555 12.4057 59.2428C11.9587 59.9306 11.4257 60.5066 10.8067 60.9708C10.1877 61.4179 9.49989 61.7618 8.74334 62.0025C7.98678 62.226 7.19584 62.3378 6.37051 62.3378H1.26379ZM0 62.3378V45.3154H2.37282V62.3378H0Z" fill="url(#paint9_radial_13_89)"/>
<path d="M18.8161 62.3378V49.0036H21.1632V62.3378H18.8161ZM20.0026 46.6823C19.4523 46.6823 19.0397 46.5706 18.7646 46.347C18.4895 46.1235 18.3519 45.7882 18.3519 45.3412C18.3519 44.8941 18.4895 44.5588 18.7646 44.3353C19.0397 44.1118 19.4437 44 19.9768 44C20.527 44 20.9396 44.1118 21.2148 44.3353C21.4899 44.5588 21.6274 44.8941 21.6274 45.3412C21.6274 45.771 21.4899 46.1063 21.2148 46.347C20.9396 46.5706 20.5356 46.6823 20.0026 46.6823Z" fill="url(#paint10_radial_13_89)"/>
<path d="M31.5056 66.8513C30.0956 66.8513 28.935 66.7395 28.0237 66.516C27.1296 66.3097 26.4676 65.983 26.0378 65.5359C25.6079 65.1061 25.393 64.5645 25.393 63.9111C25.393 63.1201 25.7025 62.4668 26.3215 61.9509C26.9405 61.4351 27.8776 61.0912 29.1328 60.9193V60.455C28.2215 60.455 27.5337 60.3432 27.0694 60.1197C26.6052 59.8962 26.3731 59.5609 26.3731 59.1138C26.3731 58.6496 26.6052 58.2627 27.0694 57.9532C27.5337 57.6265 28.2902 57.3256 29.3391 57.0505V56.5605C28.2902 56.5433 27.4907 56.2338 26.9405 55.632C26.3903 55.013 26.1152 54.2135 26.1152 53.2334C26.1152 52.3565 26.3473 51.5999 26.8115 50.9637C27.293 50.3103 27.9807 49.8117 28.8748 49.4678C29.7862 49.1067 30.8694 48.9262 32.1246 48.9262H38.4177V50.9121L34.2911 50.2673V50.7574C35.2883 50.9637 36.0535 51.3162 36.5865 51.8148C37.1195 52.2963 37.3861 52.9497 37.3861 53.775C37.3861 54.5144 37.1711 55.1591 36.7413 55.7094C36.3114 56.2596 35.6752 56.6894 34.8327 56.9989C34.0074 57.2912 32.9843 57.4374 31.7635 57.4374C31.5228 57.4374 31.2649 57.4288 30.9898 57.4116C30.7318 57.3772 30.388 57.3256 29.9581 57.2569C29.4938 57.5492 29.1156 57.8157 28.8233 58.0564C28.5482 58.2971 28.4106 58.512 28.4106 58.7012C28.4106 58.8903 28.5396 59.0451 28.7975 59.1654C29.0726 59.2686 29.3993 59.3374 29.7776 59.3718C30.1558 59.4062 30.5083 59.4233 30.835 59.4233H33.8526C34.1965 59.4233 34.6264 59.4577 35.1422 59.5265C35.6752 59.5953 36.1996 59.7414 36.7155 59.965C37.2485 60.1885 37.6956 60.5324 38.0566 60.9966C38.4177 61.4609 38.5983 62.1057 38.5983 62.931C38.5983 63.8595 38.3232 64.616 37.7729 65.2007C37.2227 65.7853 36.4232 66.2065 35.3743 66.4644C34.3255 66.7224 33.0359 66.8513 31.5056 66.8513ZM31.5572 64.9169C32.7092 64.9169 33.6377 64.8396 34.3427 64.6848C35.0648 64.5473 35.5893 64.3237 35.9159 64.0142C36.2598 63.7047 36.4318 63.3093 36.4318 62.8278C36.4318 62.3808 36.3114 62.0369 36.0707 61.7962C35.8472 61.5383 35.5635 61.3577 35.2196 61.2545C34.8757 61.1514 34.5318 61.0912 34.1879 61.074C33.844 61.0396 33.5517 61.0224 33.311 61.0224H30.2934C29.2961 61.2459 28.6083 61.5554 28.2301 61.9509C27.8518 62.3464 27.6626 62.7677 27.6626 63.2147C27.6626 63.6961 27.8346 64.0572 28.1785 64.298C28.5224 64.5387 28.9866 64.702 29.5712 64.788C30.173 64.874 30.835 64.9169 31.5572 64.9169ZM31.8667 55.9157C32.9499 55.9157 33.7666 55.6922 34.3169 55.2451C34.8671 54.7981 35.1422 54.1963 35.1422 53.4397C35.1422 52.6316 34.8585 51.9696 34.2911 51.4538C33.7409 50.9207 32.9069 50.6542 31.7893 50.6542C30.706 50.6542 29.8721 50.9035 29.2875 51.4022C28.7201 51.9008 28.4364 52.5456 28.4364 53.3365C28.4364 53.8524 28.5654 54.308 28.8233 54.7035C29.0984 55.0818 29.4853 55.3827 29.9839 55.6062C30.4997 55.8125 31.1273 55.9157 31.8667 55.9157Z" fill="url(#paint11_radial_13_89)"/>
<path d="M42.8547 62.3378V49.0036H45.2017V62.3378H42.8547ZM44.0411 46.6823C43.4909 46.6823 43.0782 46.5706 42.8031 46.347C42.528 46.1235 42.3904 45.7882 42.3904 45.3412C42.3904 44.8941 42.528 44.5588 42.8031 44.3353C43.0782 44.1118 43.4823 44 44.0153 44C44.5655 44 44.9782 44.1118 45.2533 44.3353C45.5284 44.5588 45.666 44.8941 45.666 45.3412C45.666 45.771 45.5284 46.1063 45.2533 46.347C44.9782 46.5706 44.5741 46.6823 44.0411 46.6823Z" fill="url(#paint12_radial_13_89)"/>
<path d="M54.7188 62.5957C53.4808 62.5957 52.5609 62.2604 51.9591 61.5898C51.3573 60.9193 51.0564 59.8962 51.0564 58.5206V50.9637H49.0446L49.0704 49.0036H50.3342C50.7641 49.0036 51.0736 48.9262 51.2627 48.7714C51.4691 48.6167 51.5894 48.3588 51.6238 47.9977L51.8817 45.986H53.326V49.0036H57.169V50.9895H53.326V58.4691C53.326 59.1568 53.4808 59.6555 53.7903 59.965C54.117 60.2573 54.5812 60.4034 55.183 60.4034C55.5097 60.4034 55.845 60.3604 56.1889 60.2745C56.55 60.1885 56.9025 60.0166 57.2464 59.7586V62.1057C56.7477 62.2948 56.2835 62.4238 55.8536 62.4925C55.441 62.5613 55.0627 62.5957 54.7188 62.5957Z" fill="url(#paint13_radial_13_89)"/>
<path d="M64.4962 62.6731C63.774 62.6731 63.1207 62.5355 62.536 62.2604C61.9514 61.9681 61.4872 61.5469 61.1433 60.9966C60.7994 60.4292 60.6275 59.7157 60.6275 58.8559C60.6275 58.2197 60.7392 57.6609 60.9628 57.1795C61.2035 56.698 61.5646 56.2854 62.046 55.9415C62.5446 55.5976 63.1808 55.3139 63.9546 55.0904C64.7283 54.8668 65.674 54.6777 66.7917 54.523C67.4278 54.437 67.9437 54.351 68.3391 54.265C68.7518 54.1791 69.0527 54.0415 69.2419 53.8524C69.431 53.646 69.5256 53.3451 69.5256 52.9497C69.5256 52.2963 69.302 51.7461 68.855 51.299C68.4079 50.852 67.703 50.6284 66.7401 50.6284C66.2414 50.6284 65.7342 50.7144 65.2184 50.8863C64.7025 51.0583 64.2469 51.3506 63.8514 51.7633C63.4731 52.1587 63.2324 52.7175 63.1293 53.4397L60.9628 52.7175C61.1003 52.0985 61.3238 51.5397 61.6333 51.0411C61.96 50.5425 62.3727 50.1212 62.8713 49.7773C63.37 49.4162 63.946 49.1411 64.5994 48.952C65.27 48.7628 66.0093 48.6683 66.8174 48.6683C67.9351 48.6683 68.8636 48.8574 69.6029 49.2357C70.3595 49.614 70.9183 50.1986 71.2794 50.9895C71.6577 51.7633 71.8468 52.7605 71.8468 53.9813V56.9474C71.8468 57.4804 71.8554 58.065 71.8726 58.7012C71.907 59.3202 71.95 59.9478 72.0015 60.584C72.0531 61.203 72.1047 61.7876 72.1563 62.3378H69.9898C69.9382 61.7876 69.8866 61.2374 69.8351 60.6871C69.8007 60.1369 69.7749 59.5867 69.7577 59.0365H69.4224C69.1645 59.6727 68.8206 60.2659 68.3907 60.8161C67.9609 61.3663 67.4192 61.8134 66.7659 62.1573C66.1297 62.5011 65.3731 62.6731 64.4962 62.6731ZM65.1926 60.7645C65.5708 60.7645 65.9491 60.7043 66.3274 60.584C66.7229 60.4636 67.1097 60.2659 67.488 59.9908C67.8835 59.7157 68.2532 59.3632 68.5971 58.9333C68.9581 58.5034 69.2762 57.9876 69.5513 57.3858V54.8067L70.2219 54.9356C69.9468 55.2107 69.5771 55.4171 69.1129 55.5546C68.6658 55.6922 68.1672 55.8039 67.617 55.8899C67.0668 55.9759 66.5165 56.0704 65.9663 56.1736C65.4161 56.2596 64.9089 56.3971 64.4446 56.5863C63.9976 56.7582 63.6365 57.0075 63.3614 57.3342C63.0863 57.6609 62.9487 58.108 62.9487 58.6754C62.9487 59.3632 63.155 59.8876 63.5677 60.2487C63.9804 60.5926 64.522 60.7645 65.1926 60.7645Z" fill="url(#paint14_radial_13_89)"/>
<path d="M77.0732 62.3378V44.2837H79.4202V62.3378H77.0732Z" fill="url(#paint15_radial_13_89)"/>
<rect x="74" y="2" width="9" height="9" rx="2" fill="#FF8811"/>
<defs>
<radialGradient id="paint0_radial_13_89" cx="0" cy="0" r="1" gradientUnits="userSpaceOnUse" gradientTransform="translate(39.7101 33.4257) rotate(90) scale(33.4257 39.7101)">
<stop stop-color="#C3F23A"/>
<stop offset="1" stop-color="#8DAE2C"/>
</radialGradient>
<radialGradient id="paint1_radial_13_89" cx="0" cy="0" r="1" gradientUnits="userSpaceOnUse" gradientTransform="translate(39.7101 33.4257) rotate(90) scale(33.4257 39.7101)">
<stop stop-color="#C3F23A"/>
<stop offset="1" stop-color="#8DAE2C"/>
</radialGradient>
<radialGradient id="paint2_radial_13_89" cx="0" cy="0" r="1" gradientUnits="userSpaceOnUse" gradientTransform="translate(39.7101 33.4257) rotate(90) scale(33.4257 39.7101)">
<stop stop-color="#C3F23A"/>
<stop offset="1" stop-color="#8DAE2C"/>
</radialGradient>
<radialGradient id="paint3_radial_13_89" cx="0" cy="0" r="1" gradientUnits="userSpaceOnUse" gradientTransform="translate(39.7101 33.4257) rotate(90) scale(33.4257 39.7101)">
<stop stop-color="#C3F23A"/>
<stop offset="1" stop-color="#8DAE2C"/>
</radialGradient>
<radialGradient id="paint4_radial_13_89" cx="0" cy="0" r="1" gradientUnits="userSpaceOnUse" gradientTransform="translate(39.7101 33.4257) rotate(90) scale(33.4257 39.7101)">
<stop stop-color="#C3F23A"/>
<stop offset="1" stop-color="#8DAE2C"/>
</radialGradient>
<radialGradient id="paint5_radial_13_89" cx="0" cy="0" r="1" gradientUnits="userSpaceOnUse" gradientTransform="translate(39.7101 33.4257) rotate(90) scale(33.4257 39.7101)">
<stop stop-color="#C3F23A"/>
<stop offset="1" stop-color="#8DAE2C"/>
</radialGradient>
<radialGradient id="paint6_radial_13_89" cx="0" cy="0" r="1" gradientUnits="userSpaceOnUse" gradientTransform="translate(39.7101 33.4257) rotate(90) scale(33.4257 39.7101)">
<stop stop-color="#C3F23A"/>
<stop offset="1" stop-color="#8DAE2C"/>
</radialGradient>
<radialGradient id="paint7_radial_13_89" cx="0" cy="0" r="1" gradientUnits="userSpaceOnUse" gradientTransform="translate(39.7101 33.4257) rotate(90) scale(33.4257 39.7101)">
<stop stop-color="#C3F23A"/>
<stop offset="1" stop-color="#8DAE2C"/>
</radialGradient>
<radialGradient id="paint8_radial_13_89" cx="0" cy="0" r="1" gradientUnits="userSpaceOnUse" gradientTransform="translate(39.7101 33.4257) rotate(90) scale(33.4257 39.7101)">
<stop stop-color="#C3F23A"/>
<stop offset="1" stop-color="#8DAE2C"/>
</radialGradient>
<radialGradient id="paint9_radial_13_89" cx="0" cy="0" r="1" gradientUnits="userSpaceOnUse" gradientTransform="translate(39.7101 33.4257) rotate(90) scale(33.4257 39.7101)">
<stop stop-color="#C3F23A"/>
<stop offset="1" stop-color="#8DAE2C"/>
</radialGradient>
<radialGradient id="paint10_radial_13_89" cx="0" cy="0" r="1" gradientUnits="userSpaceOnUse" gradientTransform="translate(39.7101 33.4257) rotate(90) scale(33.4257 39.7101)">
<stop stop-color="#C3F23A"/>
<stop offset="1" stop-color="#8DAE2C"/>
</radialGradient>
<radialGradient id="paint11_radial_13_89" cx="0" cy="0" r="1" gradientUnits="userSpaceOnUse" gradientTransform="translate(39.7101 33.4257) rotate(90) scale(33.4257 39.7101)">
<stop stop-color="#C3F23A"/>
<stop offset="1" stop-color="#8DAE2C"/>
</radialGradient>
<radialGradient id="paint12_radial_13_89" cx="0" cy="0" r="1" gradientUnits="userSpaceOnUse" gradientTransform="translate(39.7101 33.4257) rotate(90) scale(33.4257 39.7101)">
<stop stop-color="#C3F23A"/>
<stop offset="1" stop-color="#8DAE2C"/>
</radialGradient>
<radialGradient id="paint13_radial_13_89" cx="0" cy="0" r="1" gradientUnits="userSpaceOnUse" gradientTransform="translate(39.7101 33.4257) rotate(90) scale(33.4257 39.7101)">
<stop stop-color="#C3F23A"/>
<stop offset="1" stop-color="#8DAE2C"/>
</radialGradient>
<radialGradient id="paint14_radial_13_89" cx="0" cy="0" r="1" gradientUnits="userSpaceOnUse" gradientTransform="translate(39.7101 33.4257) rotate(90) scale(33.4257 39.7101)">
<stop stop-color="#C3F23A"/>
<stop offset="1" stop-color="#8DAE2C"/>
</radialGradient>
<radialGradient id="paint15_radial_13_89" cx="0" cy="0" r="1" gradientUnits="userSpaceOnUse" gradientTransform="translate(39.7101 33.4257) rotate(90) scale(33.4257 39.7101)">
<stop stop-color="#C3F23A"/>
<stop offset="1" stop-color="#8DAE2C"/>
</radialGradient>
</defs>
</svg>
